/* XPM */
static char *collectible[] = {
/* columns rows colors chars-per-pixel */
"32 32 9 1 ",
"  c None",
". c #0C1317",
"X c #70162B",
"o c #A84111",
"O c #EF3E6D",
"+ c #42428F",
"@ c #4C63E0",
"# c #3494CB",
"$ c #DEF9FC",
/* pixels */
"                                ",
"                                ",
"                                ",
"                                ",
"                                ",
"                                ",
"                                ",
"                                ",
"               ooo              ",
"              #ooo#             ",
"              ##o##             ",
"               +.+              ",
"               +.+              ",
"               +.+              ",
"              #@.@+             ",
"             #.....#            ",
"            #.XXXXX.#           ",
"           #XX$$XXXXX#          ",
"           #XO$$XXXOX#          ",
"           #XXOOOOOXX@          ",
"           #XXXXXXXXX@          ",
"            #XXXXXXX@           ",
"             ####@@@            ",
"                                ",
"                                ",
"                                ",
"                                ",
"                                ",
"                                ",
"                                ",
"                                ",
"                                "
};
