/* XPM */
static char *exit[] = {
/* columns rows colors chars-per-pixel */
"32 32 5 1 ",
"  c None",
". c #2E222F",
"X c #3E3546",
"o c #625565",
"O c white",
/* pixels */
"                                ",
"                                ",
"                                ",
"               .                ",
"               .                ",
"              ...               ",
"             ... .              ",
"             .X..               ",
"             .X...              ",
"             .XX..              ",
"             XoXX..             ",
"             XoXX..             ",
"             XooXX..            ",
"            .OoooX..            ",
"           .oOOoXXX.            ",
"           .XOOOooX.            ",
"            XOoOoXX...          ",
"          . .OOOooX...          ",
"        .XooOOOOOoXXX.          ",
"        XoOOOOOOOooX..          ",
"       .XoOOOOOOOOoXXX.         ",
"       .XoOOOOOOOOooX...        ",
"       .XooOOOOOOOOoXX..        ",
"       ..ooOOOOOOOOoXX..        ",
"        .XooOOOOOOooXX..        ",
"        .XXoOOOOOOooXX..        ",
"        ..XoooOOOOoXX..         ",
"         .XXXooOooXXX..         ",
"         ..XXXXXXXXX...         ",
"          ...XXXXX....          ",
"           ..........           ",
"             ......             "
};
