/* XPM */
static char *floor[] = {
/* columns rows colors chars-per-pixel */
"32 32 2 1 ",
"  c #2E5A89",
". c #3B6B9C",
/* pixels */
"                                ",
"                                ",
"                                ",
"                                ",
"                                ",
"                                ",
"                                ",
"                                ",
"                                ",
"                                ",
"                                ",
"                                ",
"                                ",
"                                ",
"                                ",
"                                ",
"                                ",
"                                ",
"................................",
"                                ",
"                                ",
"                                ",
"................................",
"................................",
"................................",
"                                ",
"................................",
"................................",
"................................",
"................................",
"................................",
"................................"
};
