/* XPM */
static char *player[] = {
/* columns rows colors chars-per-pixel */
"32 32 67 1 ",
"  c None",
". c #0F0000",
"X c #000F0D",
"o c #00120F",
"O c #0C111A",
"+ c #241006",
"@ c #311608",
"# c #071E23",
"$ c #002829",
"% c #00302D",
"& c #003130",
"* c #003230",
"= c #003831",
"- c #003B35",
"; c #003C35",
": c #003D39",
"> c #252D3A",
", c #5D240F",
"< c #703A16",
"1 c #402024",
"2 c #492328",
"3 c #52292A",
"4 c #00453A",
"5 c #00463B",
"6 c #00493F",
"7 c #005036",
"8 c #00503C",
"9 c #02593A",
"0 c #006B3D",
"q c #076B3D",
"w c #704B2E",
"e c #005645",
"r c #005F42",
"t c #384252",
"y c #384355",
"u c #006D44",
"i c #036D44",
"p c #176148",
"a c #176D4E",
"s c #007143",
"d c #007547",
"f c #177A54",
"g c #A6270D",
"h c #C6451C",
"j c #EA6C26",
"k c #008549",
"l c #098348",
"z c #008A4E",
"x c #129C43",
"c c #008F53",
"v c #1A9153",
"b c #04B652",
"n c #20A757",
"m c #0CDA57",
"M c #29C052",
"N c #18FF51",
"B c #1FCB66",
"V c #23F164",
"C c #2BFF69",
"Z c #37FF63",
"A c #FF9522",
"S c #A68761",
"D c #5F6F85",
"F c #7B98AE",
"G c #D8BE8F",
"H c #96BEE2",
"J c #C4E9FF",
/* pixels */
"                                ",
"                XXXo            ",
"              XXr59lXX          ",
"             Xr559nnZxX         ",
"            Xu5e9nnCCZxX        ",
"           Xu=59nvvvCnnuX       ",
" ++        X8=e9uveeunueX       ",
" +G.      Xu=59vuegheuehgX      ",
"  .<.     Xu=5vnvehjhuhjhX      ",
"   .,.++  X8=5vCnueAjujAeX      ",
"    .wG@  X8=evnMuuuunuulX      ",
"    +SwDO X8=cvnlu5unMnlNX      ",
"    ++t>HO8%=e9nu519mvlelX      ",
"      ODtJO%=59ue515u5u1uX      ",
"       OD>FO$59u51159151uX      ",
"       XOtO$=59be1215151elX     ",
"       X8O#%5e5uue2151221uX     ",
"      X8==&=5e59lu32e23e2bX     ",
"     Xu==e6z55ev9ue3e3eu3uX     ",
"    Xu==5v:6=5ffv0beueube5sX    ",
"    Xu==nvV6%55Bf99ue5::5=5X    ",
"    X80=9vvp6=55fe55:unM&==5X   ",
"    X8%=5vffa==55e6eunMZM&$5sX  ",
"   Xu$%%55fae6=%==6unnCZCn9$5X  ",
"   X8%%7%5:e:ua=%&5cuvnCnvv9&X  ",
"  X8s=%%$%55unpve%=5euuvve5k5=X ",
"  X=====%%%5euve5&===555555==X  ",
"   XXXXX====555===XXXXXXXXXXX   ",
"        XXXXXXXXXX              ",
"                                ",
"                                ",
"                                "
};
